<svg xmlns="http://www.w3.org/2000/svg" xmlns:xlink="http://www.w3.org/1999/xlink" width="500" zoomAndPan="magnify" viewBox="0 0 375 374.999991" height="500" preserveAspectRatio="xMidYMid meet" version="1.0"><defs><clipPath id="10d4f95fb2"><path d="M 246 149 L 319 149 L 319 226 L 246 226 Z M 246 149 " clip-rule="nonzero"/></clipPath><clipPath id="824a4b698a"><path d="M 282.453125 210.625 C 271.773438 210.625 263.875 201.71875 263.875 187.554688 C 263.875 174.953125 270.289062 164.484375 282.453125 164.484375 C 295.863281 164.484375 301.03125 176.875 301.03125 187.554688 C 301.03125 198.367188 295.863281 210.625 282.453125 210.625 M 282.847656 149.035156 C 264.324219 149.035156 246.039062 162.113281 246.039062 187.554688 C 246.039062 211.234375 261.4375 225.96875 282.160156 225.96875 C 304.078125 225.96875 318.972656 209.90625 318.972656 187.554688 C 318.972656 161.4375 300.605469 149.035156 282.847656 149.035156 " clip-rule="nonzero"/></clipPath><clipPath id="26e952d79f"><path d="M 176.226562 149 L 239.636719 149 L 239.636719 226 L 176.226562 226 Z M 176.226562 149 " clip-rule="nonzero"/></clipPath><clipPath id="a69f8dae6d"><path d="M 210.605469 181.191406 L 210.578125 195.914062 L 223.21875 195.914062 L 223.21875 208.925781 C 222.171875 209.601562 218.792969 210.570312 214.289062 210.570312 C 201.847656 210.570312 194.703125 201.507812 194.703125 187.515625 C 194.703125 174.554688 200.03125 165.171875 215.707031 165.171875 C 222.082031 165.171875 227.460938 166.324219 232.113281 168.273438 L 238.378906 153.816406 C 232.269531 150.824219 225.378906 149.035156 214.632812 149.035156 C 192.929688 149.035156 176.324219 164.523438 176.324219 187.992188 C 176.324219 208.835938 188.542969 225.902344 213.269531 225.902344 C 225.855469 225.902344 235.078125 221.914062 239.464844 218.972656 L 239.453125 181.191406 Z M 210.605469 181.191406 " clip-rule="nonzero"/></clipPath><clipPath id="4f23f6b458"><path d="M 116.339844 149.101562 L 175.523438 149.101562 L 175.523438 224.839844 L 116.339844 224.839844 Z M 116.339844 149.101562 " clip-rule="nonzero"/></clipPath><clipPath id="e3cd2346cf"><path d="M 149.835938 183.339844 C 147.398438 185.234375 143.554688 186.375 139.421875 186.375 C 137.472656 186.375 135.089844 186.269531 133.9375 186.136719 L 133.9375 164.894531 C 134.730469 164.75 137.261719 164.523438 138.214844 164.496094 C 139.183594 164.457031 140.785156 164.445312 141.199219 164.457031 C 144.921875 164.511719 147.996094 165.371094 150.222656 167.132812 C 152.449219 168.832031 153.574219 171.320312 153.574219 174.433594 C 153.574219 178.226562 152.261719 181.378906 149.824219 183.339844 M 158.105469 195.808594 L 158.105469 195.476562 C 161.777344 193.160156 165.3125 189.792969 167.433594 186.507812 C 169.804688 182.808594 170.90625 178.476562 170.90625 174.011719 C 170.90625 170.632812 170.296875 167.4375 169.078125 164.472656 C 167.925781 161.421875 166.03125 158.652344 163.394531 156.414062 C 160.820312 154.1875 157.507812 152.425781 153.441406 151.140625 C 149.375 149.855469 144.445312 149.207031 138.625 149.207031 C 134.226562 149.207031 130.265625 149.417969 126.742188 149.75 C 122.925781 150.105469 120.328125 150.425781 116.683594 151.007812 L 116.683594 224.683594 L 133.949219 224.683594 L 133.949219 200.050781 C 136.070312 200.140625 137.660156 200.15625 139.964844 200.089844 C 139.964844 200.089844 142.191406 200.871094 145.054688 204.554688 C 148.445312 208.914062 152.554688 215.726562 155.003906 224.683594 L 175.464844 224.683594 C 170.957031 211.644531 166.320312 199.558594 158.117188 195.808594 " clip-rule="nonzero"/></clipPath><clipPath id="aa4f24b030"><path d="M 56 150.15625 L 108.238281 150.15625 L 108.238281 224.839844 L 56 224.839844 Z M 56 150.15625 " clip-rule="nonzero"/></clipPath><clipPath id="7e07fe1004"><path d="M 80.070312 208.941406 C 76.242188 208.941406 73.300781 206.820312 73.300781 201.824219 L 73.300781 193.859375 L 101.617188 193.859375 L 101.605469 178.835938 L 73.300781 178.835938 L 73.300781 166.085938 L 106.746094 166.085938 L 106.730469 150.253906 L 56.035156 150.253906 L 56.035156 207.046875 C 56.035156 218.707031 60.59375 224.683594 73.539062 224.683594 L 108.125 224.683594 L 108.109375 208.941406 C 108.109375 208.941406 87.847656 208.941406 80.070312 208.941406 " clip-rule="nonzero"/></clipPath></defs><rect x="-37.5" width="450" fill="#ffffff" y="-37.499999" height="449.999989" fill-opacity="1"/><rect x="-37.5" width="450" fill="#ffffff" y="-37.499999" height="449.999989" fill-opacity="1"/><g clip-path="url(#10d4f95fb2)"><g clip-path="url(#824a4b698a)"><path fill="#c01826" d="M 49.410156 142.40625 L 325.59375 142.40625 L 325.59375 232.589844 L 49.410156 232.589844 Z M 49.410156 142.40625 " fill-opacity="1" fill-rule="nonzero"/></g></g><g clip-path="url(#26e952d79f)"><g clip-path="url(#a69f8dae6d)"><path fill="#c01826" d="M 49.410156 142.40625 L 325.59375 142.40625 L 325.59375 232.589844 L 49.410156 232.589844 Z M 49.410156 142.40625 " fill-opacity="1" fill-rule="nonzero"/></g></g><g clip-path="url(#4f23f6b458)"><g clip-path="url(#e3cd2346cf)"><path fill="#c01826" d="M 49.410156 142.40625 L 325.59375 142.40625 L 325.59375 232.589844 L 49.410156 232.589844 Z M 49.410156 142.40625 " fill-opacity="1" fill-rule="nonzero"/></g></g><g clip-path="url(#aa4f24b030)"><g clip-path="url(#7e07fe1004)"><path fill="#c01826" d="M 49.410156 142.40625 L 325.59375 142.40625 L 325.59375 232.589844 L 49.410156 232.589844 Z M 49.410156 142.40625 " fill-opacity="1" fill-rule="nonzero"/></g></g></svg>